<?xml version="1.0" encoding="UTF-8" standalone="no"?><svg viewBox="0 0 220.92142 71.000001" version="1.1" xml:space="preserve" xmlns="http://www.w3.org/2000/svg" xmlns:svg="http://www.w3.org/2000/svg"><path d="m43.48 24.53 2.27-7.68 2.33 7.68Zm11.33 6.71-5.96-18.13c-.13-.4-.28-.66-.45-.79-.17-.12-.44-.19-.82-.19h-3.29c-.38 0-.66.07-.84.2-.18.13-.33.39-.44.77l-6.02 18.13c-.08.1-.11.28-.11.57 0 .44.27.66.8.66h2.47c.23 0 .41 0 .55-.03.14-.02.26-.07.34-.14.08-.07.16-.19.23-.34.07-.15.14-.35.21-.6l.94-3.17h6.78l.96 3.11c.08.27.15.48.23.63.07.15.16.27.26.36.09.08.21.14.34.16.13.02.3.03.51.03h2.64c.53 0 .8-.22.8-.66 0-.13 0-.22-.01-.27-.01-.05-.04-.15-.1-.3m-2.95 7.3h-1.9c-.49 0-.82.07-.98.21-.16.14-.24.43-.24.87v10.76l-5.62-10.79c-.23-.46-.45-.75-.67-.87-.22-.12-.6-.19-1.15-.19h-1.76c-.49 0-.82.07-.98.21-.16.14-.24.43-.24.87v18.16c0 .44.07.73.23.87.15.14.47.21.96.21h1.93c.49 0 .82-.07.98-.21.16-.14.24-.43.24-.87V46.98L48.3 57.8c.23.46.45.75.67.87.22.13.6.19 1.15.19h1.76c.49 0 .82-.07.98-.21.16-.14.24-.43.24-.87V39.62c0-.44-.08-.73-.24-.87-.16-.14-.49-.21-.98-.21m9.43-1.72 4.9 4.92v24.81H4.43V41.74l4.89-4.92c.72-.73.72-1.91 0-2.63l-4.89-4.92V4.45h61.79v24.81l-4.9 4.92c-.72.73-.72 1.91 0 2.64M70.64 0H0v31.4l4.08 4.1L0 39.6V71h70.64V39.6l-4.08-4.1 4.08-4.1ZM31.4 54.64h-7.98l8.4-11.87c.13-.19.22-.34.26-.46.04-.11.06-.25.06-.4v-2.28c0-.44-.08-.73-.24-.87-.16-.14-.49-.21-.98-.21H18.79c-.44 0-.72.08-.85.24-.13.16-.2.5-.2 1.02v1.71c0 .51.07.85.2 1.01.13.16.42.24.85.24h7.49l-8.29 11.87c-.21.27-.31.54-.31.8v2.34c0 .44.08.73.24.87.16.14.49.21.98.21h12.51c.44 0 .72-.08.86-.24.13-.16.2-.5.2-1.01V55.9c0-.51-.07-.85-.2-1.01-.13-.16-.42-.25-.86-.25m-3.72-30.28c0 .78-.05 1.43-.16 1.96-.1.52-.27.95-.51 1.27-.24.32-.55.55-.94.68-.39.13-.87.2-1.43.2h-2.33V16.14h2.33c1.08 0 1.85.32 2.33.96.47.64.71 1.69.71 3.16v4.11Zm4.06-8.25c-.66-1.35-1.57-2.35-2.71-3-1.15-.65-2.59-.97-4.33-.97h-5.82c-.49 0-.82.07-.98.21-.16.14-.24.43-.24.87v18.16c0 .44.08.73.24.87.16.14.49.21.98.21h6.53c3.09 0 5.2-1.32 6.33-3.97.26-.61.45-1.22.55-1.84.11-.62.16-1.4.16-2.35v-3.85c0-1.08-.05-1.94-.16-2.57-.1-.63-.29-1.22-.55-1.77"/><path d="M103.08546.00021895c-3.09191.00124119-6.185244.0058181-9.278403.0058181h-.009796C87.580849 9.2802082 81.095035 18.366289 74.85857 27.620603c-.531403.814221-1.124454 1.588958-1.525513 2.472684-.992621 2.184493-1.071972 4.786811-.119457 7.001095.411086.99295 1.072286 1.845419 1.693928 2.709288 1.644341 2.23414 3.428823 4.360694 5.023031 6.634552 7.640172-4.031383 15.360818-7.904295 23.051111-11.816528.33088-.1688.67272-.308823.96348-.537203-1.53404-.089365-3.06794-.058179-4.601992-.058179H88.69394c5.243842-7.754956 10.667948-15.391712 16.05216-23.04737 2.54672-3.6441329 5.1334-7.2674876 7.60995-10.9612688-3.08816-.01489427-6.17868-.01869544-9.27059-.01745425Zm24.86255.0058181C117.6809 14.552785 107.47431 29.15023 97.267366 43.736693c-1.233257 1.717808-2.396019 3.494188-3.689434 5.172277-1.293417 1.737667-2.478186 3.63452-2.939404 5.779296-.571509 2.571745.152041 5.312999 1.686093 7.418057 2.145668 2.829913 4.371316 5.579622 6.527009 8.389677 2.25594-1.082319 4.48082-2.233292 6.72675-3.3454 4.87287-2.432732 9.73697-4.905887 14.56973-7.418056 2.09553-1.112105 4.2307-2.163784 6.28613-3.345396-2.3061-.049649-4.62213.000464-6.93824-.019395h-10.62769c10.51777-15.013433 20.96437-30.06795 31.5423-45.041664 2.65701-3.7831473 5.3644-7.5269755 8.01139-11.32005195-6.82477 0-13.64923-.00990581-20.47399 0Z"/><path d="M150.263.0000249V71h70.65842V.0000249Zm36.01484 11.1256681c9.60197 0 14.85276 4.575406 14.85276 12.686165l-.00567-.002846v2.080493c0 6.723506-5.38785 11.092404-11.05433 14.417725l-5.5269 3.32822c-4.90554 2.981425-5.38789 4.782526-5.38789 7.140273v.277207h19.96495c1.65843 0 2.00417.483612 2.00417 2.217673v3.188195c0 1.734061-.34574 2.217671-2.00417 2.217671h-26.73473c-1.72811 0-2.21064-.34636-2.21064-2.010479v-3.395387c0-8.31768 4.21425-12.75354 9.46543-15.804911l5.87291-3.395386c1.86463-1.040436 3.45351-2.287621 4.90573-3.674871 1.44929-1.387252 2.14029-3.188649 2.14029-5.476448v-.693308c0-4.088895-2.21027-6.099742-6.63079-6.099742-4.42048 0-6.2849 1.593953-6.90647 5.959716-.20621 1.110382-.69156 1.454352-2.14086 1.454352h-3.93797c-1.72813 0-2.21064-.41651-2.21064-2.147661 0-2.841535 1.17359-6.030276 3.04112-7.901317 2.90151-2.91148 7.04633-4.365334 12.5037-4.365334Z"/></svg>